<?xml version="1.0" encoding="utf-8"?>
<!-- Svg Vector Icons : http://www.onlinewebfonts.com/icon -->
<!DOCTYPE svg PUBLIC "-//W3C//DTD SVG 1.1//EN" "http://www.w3.org/Graphics/SVG/1.1/DTD/svg11.dtd">
<svg version="1.1" xmlns="http://www.w3.org/2000/svg" xmlns:xlink="http://www.w3.org/1999/xlink" x="0px" y="0px" viewBox="0 0 256 256" enable-background="new 0 0 256 256" xml:space="preserve">
<metadata> Svg Vector Icons : http://www.onlinewebfonts.com/icon </metadata>
<g><g><path fill="#000000" d="M82.8,206.6l21.6-9.8l-45.2-45.2l-9.8,21.6c0,0-2,3.9,12.8,19.6C77.9,208.5,82.8,206.6,82.8,206.6z"/><g><g><path fill="#000000" d="M108.4 236.1L98.6 199.7 137.9 167.3 137.9 216.4 z"/></g></g><g><g><path fill="#000000" d="M20 147.6L56.3 157.4 88.7 118.1 39.6 118.1 z"/></g></g><g><path fill="#000000" d="M246,10c0,0-35.4-1-70.7,16.7c-10.8,4.9-22.6,12.8-32.4,22.6c-29.5,29.5-89.4,105.2-89.4,105.2s-2.9,8.8,17.7,29.5c20.6,20.6,29.5,17.7,29.5,17.7s76.6-60,106.1-88.4c9.8-9.8,17.7-21.6,23.6-32.4C247,45.4,246,10,246,10z M177.2,98.5c-10.8,0-19.6-8.8-19.6-19.6c0-10.8,8.8-19.6,19.6-19.6c10.8,0,19.6,8.8,19.6,19.6C196.8,89.6,188,98.5,177.2,98.5z"/></g><path fill="#000000" d="M74,216.4c-18.7,14.7-47.2,12.8-47.2,12.8s-2-28.5,12.8-47.2c-1-2-2-2.9-2.9-4.9c-2,2-4.9,3.9-6.9,5.9c-22.6,22.6-19.6,62.9-19.6,62.9s40.3,2.9,62.9-19.6c2-2,3.9-4.9,5.9-6.9C76.9,218.4,76,217.4,74,216.4z"/></g></g>
</svg>