<svg id="svg" version="1.1" xmlns="http://www.w3.org/2000/svg" xmlns:xlink="http://www.w3.org/1999/xlink" width="400" height="384.44444444444446" viewBox="0, 0, 400,384.44444444444446"><g id="svgg"><path id="path0" d="M156.346 123.076 L 69.038 123.269 68.941 188.805 C 68.874 234.007,68.969 254.492,69.246 254.827 C 69.501 255.133,70.965 255.360,73.231 255.444 C 76.732 255.574,76.836 255.605,77.863 256.827 C 78.608 257.713,79.242 258.077,80.040 258.077 C 80.823 258.077,81.503 257.698,82.282 256.827 L 83.398 255.577 87.844 255.577 L 92.289 255.577 93.430 256.827 C 95.006 258.552,96.384 258.512,97.830 256.699 L 98.930 255.320 103.291 255.449 C 107.619 255.576,107.661 255.586,108.940 256.827 C 110.678 258.512,111.912 258.476,113.268 256.698 L 114.320 255.319 118.427 255.448 C 122.394 255.573,122.587 255.619,124.111 256.827 C 126.174 258.463,127.664 258.495,128.591 256.925 C 129.893 254.723,137.288 254.657,139.758 256.827 C 141.714 258.546,143.128 258.515,144.231 256.731 L 145.063 255.385 149.040 255.385 C 152.651 255.385,153.118 255.468,154.105 256.289 C 156.567 258.337,157.902 258.384,159.690 256.485 L 160.726 255.385 195.459 255.391 C 214.562 255.394,230.369 255.524,230.586 255.679 C 230.802 255.834,231.282 256.438,231.652 257.019 C 232.579 258.475,234.036 258.410,235.955 256.827 C 237.432 255.609,237.578 255.574,241.716 255.444 C 244.370 255.361,246.067 255.145,246.244 254.867 C 246.685 254.174,246.593 241.590,246.140 240.744 C 245.754 240.023,245.120 240.000,225.609 240.000 L 205.475 240.000 203.891 238.416 L 202.308 236.833 202.308 191.376 L 202.308 145.919 203.277 144.594 C 205.044 142.179,203.786 142.308,225.637 142.308 C 245.121 142.308,245.754 142.285,246.140 141.564 C 246.731 140.459,246.674 123.751,246.077 123.154 C 245.823 122.900,245.174 122.735,244.635 122.787 C 244.095 122.839,204.365 122.969,156.346 123.076 M169.480 177.526 C 172.087 179.662,171.547 182.307,168.387 182.880 C 167.688 183.007,150.183 183.060,129.488 182.998 C 86.728 182.869,90.510 183.195,90.889 179.672 C 91.278 176.049,89.069 176.239,131.307 176.193 L 167.805 176.154 169.480 177.526 M168.764 190.264 C 171.310 191.845,171.888 193.982,170.140 195.357 C 168.715 196.478,92.705 196.633,91.473 195.517 C 90.121 194.294,90.882 190.691,92.626 190.052 C 94.672 189.303,167.542 189.505,168.764 190.264 M244.080 193.411 C 242.434 193.770,241.894 194.857,242.947 195.689 C 243.405 196.051,244.163 197.175,244.631 198.188 C 245.648 200.387,245.691 200.365,246.170 197.392 C 246.534 195.132,246.197 193.015,245.490 193.122 C 245.326 193.147,244.692 193.277,244.080 193.411 M170.234 204.814 C 171.624 206.205,171.389 207.958,169.655 209.122 L 168.348 210.000 130.356 210.000 L 92.364 210.000 91.566 208.987 C 90.621 207.785,90.534 205.892,91.368 204.701 L 91.967 203.846 130.616 203.846 L 169.266 203.846 170.234 204.814 " stroke="none" fill="#f2ece3" fill-rule="evenodd"></path><path id="path1" d="M167.692 0.566 C 167.692 1.032,166.755 1.151,162.404 1.239 L 157.115 1.346 156.994 2.404 L 156.872 3.462 152.500 3.462 C 147.973 3.462,146.965 3.897,147.919 5.441 C 148.096 5.726,148.028 5.784,147.731 5.601 C 146.549 4.871,139.233 5.820,139.004 6.733 C 138.770 7.662,136.735 8.258,135.181 7.851 C 133.981 7.537,132.308 8.324,132.308 9.202 C 132.308 9.857,132.003 9.978,130.096 10.077 C 127.948 10.189,127.887 10.222,127.957 11.250 C 128.028 12.294,127.999 12.308,125.649 12.346 C 121.261 12.415,121.345 12.392,121.361 13.558 L 121.376 14.615 86.842 14.615 L 52.308 14.615 52.308 40.192 L 52.308 65.769 51.154 65.769 C 50.209 65.769,50.000 65.928,50.000 66.646 C 50.000 67.268,49.664 67.651,48.846 67.959 C 48.100 68.241,47.692 68.663,47.692 69.156 C 47.692 69.647,47.351 70.002,46.731 70.158 C 46.046 70.330,45.769 70.660,45.769 71.305 C 45.769 73.531,45.312 74.615,44.375 74.615 C 43.616 74.615,43.462 74.811,43.462 75.769 C 43.462 76.795,43.333 76.923,42.308 76.923 C 41.166 76.923,41.154 76.944,41.154 79.038 C 41.154 81.132,41.142 81.154,40.000 81.154 C 38.980 81.154,38.846 81.285,38.846 82.282 C 38.846 83.227,38.674 83.430,37.788 83.532 C 36.778 83.648,36.731 83.747,36.731 85.769 C 36.731 87.847,36.712 87.883,35.673 87.774 C 34.732 87.675,34.615 87.789,34.615 88.806 C 34.615 89.767,34.447 89.968,33.558 90.071 C 32.556 90.186,32.494 90.310,32.385 92.404 C 32.272 94.561,32.242 94.615,31.154 94.615 C 30.066 94.615,30.036 94.669,29.923 96.827 C 29.815 98.899,29.747 99.038,28.846 99.038 C 28.154 99.038,27.874 99.254,27.845 99.808 C 27.824 100.231,27.781 101.226,27.749 102.019 C 27.703 103.192,27.547 103.462,26.914 103.462 C 26.016 103.462,25.385 104.795,25.385 106.690 C 25.385 107.745,25.246 107.941,24.519 107.915 C 23.731 107.887,23.644 108.083,23.538 110.096 C 23.426 112.263,23.400 112.308,22.288 112.308 C 21.160 112.308,21.154 112.319,21.154 114.590 C 21.154 116.794,21.117 116.876,20.096 116.994 C 19.049 117.114,19.037 117.146,18.927 120.264 C 18.817 123.371,18.802 123.415,17.773 123.534 C 16.771 123.649,16.736 123.730,16.859 125.635 C 16.984 127.574,16.961 127.623,15.801 127.878 L 14.615 128.138 14.615 132.531 L 14.615 136.923 13.462 136.923 L 12.308 136.923 12.308 140.167 L 12.308 143.410 11.250 143.532 L 10.192 143.654 10.086 149.110 L 9.979 154.566 8.932 154.687 L 7.885 154.808 7.889 161.442 L 7.893 168.077 6.891 168.077 L 5.888 168.077 5.638 172.981 C 5.315 179.306,5.314 202.984,5.636 209.300 C 5.876 214.004,5.917 214.185,6.789 214.403 C 7.648 214.619,7.694 214.796,7.723 217.988 C 7.832 229.663,7.875 230.000,9.253 230.000 C 9.937 230.000,10.000 230.291,10.000 233.436 L 10.000 236.872 8.942 236.994 C 8.182 237.081,7.885 237.331,7.885 237.885 C 7.885 238.388,7.564 238.720,6.957 238.846 C 6.365 238.969,5.878 239.458,5.611 240.199 C 5.303 241.051,4.963 241.346,4.327 241.309 C 3.619 241.268,3.462 241.460,3.462 242.360 C 3.462 243.327,3.321 243.462,2.308 243.462 C 1.282 243.462,1.154 243.590,1.154 244.615 C 1.154 245.385,0.962 245.769,0.577 245.769 C 0.134 245.769,0.000 246.261,0.000 247.885 L 0.000 250.000 2.692 250.000 C 5.288 250.000,5.385 249.966,5.385 249.064 C 5.385 248.329,5.612 248.102,6.442 248.006 C 7.266 247.911,7.526 247.656,7.619 246.850 C 7.712 246.051,7.974 245.789,8.773 245.696 C 9.573 245.604,9.835 245.342,9.927 244.543 C 10.019 243.743,10.282 243.481,11.081 243.389 C 11.882 243.296,12.142 243.034,12.235 242.231 C 12.346 241.269,12.503 241.184,14.351 241.077 C 16.208 240.970,16.355 240.888,16.468 239.904 C 16.570 239.018,16.773 238.846,17.718 238.846 C 18.655 238.846,18.846 238.689,18.846 237.915 C 18.846 237.193,19.106 236.927,20.000 236.731 C 20.884 236.537,21.154 236.265,21.154 235.572 C 21.154 234.870,21.392 234.639,22.212 234.545 C 23.042 234.449,23.295 234.196,23.391 233.365 C 23.487 232.535,23.713 232.308,24.449 232.308 C 25.232 232.308,25.385 232.120,25.385 231.154 C 25.385 230.128,25.513 230.000,26.538 230.000 C 27.564 230.000,27.692 229.872,27.692 228.846 C 27.692 227.707,27.718 227.692,29.766 227.692 C 31.632 227.692,31.863 227.600,32.070 226.773 C 32.210 226.218,32.681 225.759,33.260 225.614 C 33.853 225.465,34.311 225.008,34.459 224.417 C 34.631 223.733,34.960 223.462,35.619 223.462 C 36.384 223.462,36.538 223.268,36.538 222.308 C 36.538 221.282,36.667 221.154,37.692 221.154 C 38.718 221.154,38.846 221.026,38.846 220.000 C 38.846 218.974,38.974 218.846,40.000 218.846 C 40.966 218.846,41.154 218.694,41.154 217.910 C 41.154 217.175,41.381 216.948,42.212 216.852 C 43.042 216.757,43.295 216.504,43.391 215.673 C 43.498 214.744,43.676 214.615,44.859 214.615 C 46.581 214.615,47.692 214.017,47.692 213.089 C 47.692 212.578,48.010 212.322,48.750 212.237 C 49.569 212.143,49.834 211.886,49.925 211.098 C 50.018 210.303,50.290 210.045,51.175 209.915 L 52.308 209.749 52.308 233.336 L 52.308 256.923 47.885 256.923 L 43.462 256.923 43.462 257.859 C 43.462 258.594,43.235 258.821,42.404 258.917 C 41.520 259.018,41.326 259.246,41.225 260.299 C 41.118 261.412,40.983 261.547,40.071 261.453 L 39.038 261.346 39.038 266.731 L 39.038 272.115 40.096 272.237 C 40.982 272.339,41.154 272.542,41.154 273.487 C 41.154 274.484,41.288 274.615,42.308 274.615 C 43.267 274.615,43.462 274.770,43.462 275.532 C 43.462 276.961,40.287 276.912,134.327 276.918 L 223.462 276.923 223.462 277.837 C 223.462 278.544,223.201 278.802,222.308 278.981 C 221.391 279.164,221.154 279.411,221.154 280.183 C 221.154 280.768,220.925 281.173,220.577 281.202 C 220.260 281.228,219.784 281.272,219.519 281.298 C 219.255 281.325,218.985 281.812,218.919 282.381 C 218.827 283.180,218.565 283.442,217.765 283.534 C 216.895 283.635,216.748 283.818,216.838 284.692 C 216.943 285.701,216.884 285.733,214.723 285.846 C 212.630 285.955,212.493 286.022,212.381 286.996 C 212.288 287.795,212.026 288.057,211.227 288.150 C 210.512 288.232,210.156 288.523,210.075 289.091 C 209.994 289.658,209.595 289.985,208.783 290.147 C 207.757 290.352,207.639 290.504,207.850 291.345 C 208.067 292.209,207.975 292.308,206.961 292.308 C 206.017 292.308,205.788 292.499,205.577 293.462 C 205.380 294.356,205.114 294.615,204.393 294.615 C 203.615 294.615,203.462 294.805,203.462 295.769 C 203.462 296.912,203.441 296.923,201.337 296.923 C 199.283 296.923,199.204 296.962,198.981 298.077 C 198.802 298.970,198.544 299.231,197.837 299.231 C 196.985 299.231,196.793 299.556,196.806 300.972 C 196.808 301.190,196.359 301.363,195.808 301.357 C 194.999 301.348,194.784 301.549,194.686 302.404 C 194.584 303.290,194.381 303.462,193.436 303.462 C 192.439 303.462,192.308 303.596,192.308 304.615 C 192.308 305.641,192.179 305.769,191.154 305.769 C 190.128 305.769,190.000 305.897,190.000 306.923 C 190.000 307.939,189.867 308.077,188.889 308.077 C 188.247 308.077,187.785 308.280,187.796 308.558 C 187.853 310.101,187.683 310.263,185.982 310.289 C 183.958 310.319,183.462 310.565,183.462 311.536 C 183.462 312.036,183.138 312.294,182.404 312.378 C 181.580 312.473,181.320 312.728,181.227 313.534 C 181.134 314.334,180.872 314.596,180.073 314.688 C 179.273 314.781,179.011 315.043,178.919 315.842 C 178.827 316.642,178.565 316.904,177.765 316.996 C 176.900 317.096,176.743 317.289,176.803 318.173 C 176.867 319.098,176.737 319.231,175.771 319.231 C 174.852 319.231,174.646 319.408,174.545 320.288 C 174.442 321.180,174.257 321.334,173.365 321.268 C 172.433 321.199,172.308 321.324,172.308 322.326 C 172.308 323.405,172.226 323.462,170.673 323.467 C 168.762 323.474,168.278 323.726,167.911 324.904 C 167.728 325.490,167.339 325.769,166.705 325.769 C 165.922 325.769,165.769 325.957,165.769 326.923 C 165.769 327.949,165.641 328.077,164.615 328.077 C 163.649 328.077,163.462 328.229,163.462 329.013 C 163.462 329.748,163.235 329.975,162.404 330.071 C 161.573 330.166,161.320 330.419,161.224 331.250 C 161.158 331.832,160.855 332.329,160.551 332.356 C 160.248 332.382,159.784 332.425,159.519 332.452 C 159.255 332.478,158.985 332.965,158.919 333.534 C 158.827 334.334,158.565 334.596,157.765 334.688 C 156.950 334.782,156.731 335.012,156.731 335.769 C 156.731 336.670,156.591 336.738,154.519 336.846 C 152.365 336.958,152.308 336.990,152.308 338.071 C 152.308 338.994,152.131 339.200,151.252 339.301 C 150.481 339.390,150.144 339.683,150.002 340.385 C 149.857 341.102,149.564 341.346,148.846 341.346 C 148.036 341.346,147.896 341.513,147.957 342.404 C 148.020 343.328,147.891 343.462,146.930 343.462 C 146.021 343.462,145.786 343.662,145.577 344.615 C 145.380 345.510,145.114 345.769,144.393 345.769 C 143.615 345.769,143.462 345.959,143.462 346.923 C 143.462 348.066,143.441 348.077,141.337 348.077 C 139.283 348.077,139.204 348.116,138.981 349.231 C 138.802 350.124,138.544 350.385,137.837 350.385 C 136.985 350.385,136.793 350.710,136.806 352.126 C 136.808 352.344,136.359 352.517,135.808 352.511 C 134.999 352.502,134.784 352.703,134.686 353.558 C 134.584 354.444,134.381 354.615,133.436 354.615 C 132.439 354.615,132.308 354.749,132.308 355.769 C 132.308 356.795,132.179 356.923,131.154 356.923 C 130.128 356.923,130.000 357.051,130.000 358.077 C 130.000 359.100,129.870 359.231,128.858 359.231 C 128.107 359.231,127.777 359.395,127.893 359.712 C 128.219 360.601,127.407 361.248,125.791 361.384 C 123.835 361.550,123.462 361.760,123.462 362.689 C 123.462 363.190,123.138 363.448,122.404 363.532 C 121.580 363.627,121.320 363.882,121.227 364.688 C 121.134 365.488,120.872 365.750,120.073 365.842 C 119.273 365.934,119.011 366.197,118.919 366.996 C 118.827 367.795,118.565 368.057,117.765 368.150 C 116.988 368.240,116.737 368.476,116.758 369.100 C 116.777 369.714,116.501 369.988,115.700 370.148 C 114.810 370.326,114.615 370.565,114.615 371.478 C 114.615 372.489,114.509 372.579,113.462 372.457 C 112.412 372.335,112.308 372.424,112.308 373.449 C 112.308 374.536,112.238 374.579,110.288 374.691 C 107.932 374.827,107.345 375.959,107.858 379.378 L 108.129 381.185 111.084 381.073 C 113.766 380.972,114.049 380.886,114.156 380.140 C 114.235 379.580,114.633 379.246,115.406 379.092 C 116.291 378.915,116.538 378.659,116.538 377.920 C 116.538 377.174,116.762 376.948,117.596 376.852 C 118.427 376.757,118.680 376.504,118.776 375.673 C 118.877 374.787,119.081 374.615,120.026 374.615 C 121.017 374.615,121.154 374.479,121.154 373.487 C 121.154 372.542,121.326 372.339,122.212 372.237 C 123.042 372.141,123.295 371.888,123.391 371.058 C 123.507 370.051,123.612 370.000,125.561 370.000 C 127.674 370.000,128.310 370.485,127.831 371.731 C 127.650 372.204,128.026 372.308,129.933 372.308 C 132.182 372.308,132.261 372.342,132.378 373.365 C 132.499 374.413,132.529 374.424,135.673 374.535 C 138.403 374.631,138.846 374.741,138.846 375.323 C 138.846 376.671,139.649 376.923,143.949 376.923 C 148.036 376.923,148.123 376.941,147.869 377.740 C 147.477 378.977,148.242 379.218,152.569 379.225 C 156.335 379.231,156.490 379.264,156.608 380.096 C 156.727 380.938,156.884 380.967,162.308 381.154 L 167.885 381.346 167.885 382.308 L 167.885 383.269 178.942 383.371 C 188.418 383.459,190.000 383.555,190.000 384.044 C 190.000 384.533,191.280 384.615,198.846 384.615 C 206.412 384.615,207.692 384.533,207.692 384.044 C 207.692 383.555,209.274 383.459,218.750 383.371 L 229.808 383.269 229.929 382.221 L 230.049 381.172 236.467 381.067 C 242.793 380.963,242.886 380.949,243.008 380.096 C 243.123 379.285,243.315 379.231,246.084 379.227 C 250.549 379.220,251.819 378.927,252.092 377.839 C 252.307 376.985,252.501 376.923,254.976 376.923 C 258.245 376.923,258.846 376.708,258.846 375.536 C 258.846 374.654,258.957 374.615,261.507 374.615 C 264.784 374.615,265.385 374.400,265.385 373.228 C 265.385 372.334,265.471 372.308,268.482 372.308 C 271.577 372.308,271.579 372.307,271.981 371.154 C 272.361 370.064,272.498 370.000,274.461 370.000 C 276.409 370.000,276.538 369.941,276.538 369.058 C 276.538 368.180,276.691 368.107,278.750 368.000 C 280.844 367.891,280.968 367.828,281.083 366.827 C 281.199 365.818,281.301 365.769,283.295 365.769 C 285.360 365.769,285.385 365.756,285.385 364.615 L 285.385 363.462 287.692 363.462 C 289.991 363.462,290.000 363.457,290.000 362.327 C 290.000 361.215,290.045 361.190,292.212 361.077 C 294.171 360.975,294.437 360.863,294.546 360.096 C 294.649 359.370,294.907 359.231,296.149 359.231 C 298.218 359.231,298.846 358.908,298.846 357.843 C 298.846 357.077,299.039 356.923,300.000 356.923 C 301.026 356.923,301.154 356.795,301.154 355.769 C 301.154 354.627,301.175 354.615,303.269 354.615 C 305.363 354.615,305.385 354.604,305.385 353.462 C 305.385 352.340,305.436 352.308,307.231 352.308 C 309.169 352.308,310.000 351.831,310.000 350.718 C 310.000 350.276,310.357 350.010,311.058 349.929 C 311.805 349.843,312.151 349.561,312.235 348.966 C 312.319 348.376,312.665 348.088,313.389 348.004 C 314.195 347.911,314.450 347.651,314.545 346.827 C 314.652 345.898,314.830 345.769,316.012 345.769 C 317.735 345.769,318.846 345.171,318.846 344.243 C 318.846 343.732,319.164 343.476,319.904 343.391 C 320.735 343.295,320.988 343.042,321.083 342.212 C 321.185 341.326,321.388 341.154,322.333 341.154 C 323.280 341.154,323.462 340.999,323.462 340.192 C 323.462 339.423,323.654 339.231,324.423 339.231 C 325.235 339.231,325.385 339.051,325.385 338.077 C 325.385 337.051,325.513 336.923,326.538 336.923 C 327.564 336.923,327.692 336.795,327.692 335.769 C 327.692 334.669,327.768 334.615,329.327 334.609 C 331.229 334.603,331.722 334.350,332.082 333.197 C 332.226 332.735,332.718 332.302,333.175 332.236 C 333.690 332.161,334.092 331.754,334.229 331.168 C 334.367 330.580,334.806 330.137,335.385 330.000 C 335.958 329.865,336.403 329.420,336.538 328.846 C 336.675 328.267,337.119 327.828,337.706 327.691 C 338.284 327.555,338.700 327.151,338.772 326.655 C 338.843 326.169,339.266 325.747,339.824 325.607 C 340.392 325.465,340.851 324.999,340.997 324.417 C 341.144 323.834,341.512 323.462,341.942 323.462 C 342.870 323.462,343.067 323.084,343.340 320.778 C 343.542 319.069,343.673 318.846,344.477 318.846 C 345.189 318.846,345.385 318.639,345.385 317.885 C 345.385 317.073,345.564 316.923,346.538 316.923 C 347.564 316.923,347.692 316.795,347.692 315.769 C 347.692 314.744,347.821 314.615,348.846 314.615 C 349.872 314.615,350.000 314.487,350.000 313.462 C 350.000 312.484,350.149 312.308,350.971 312.308 C 351.739 312.308,351.990 312.070,352.169 311.175 C 352.323 310.403,352.657 310.005,353.217 309.925 C 353.880 309.830,354.108 309.419,354.397 307.788 C 354.708 306.037,354.874 305.769,355.647 305.769 C 356.377 305.769,356.538 305.564,356.538 304.641 C 356.538 303.696,356.710 303.493,357.596 303.391 C 358.597 303.276,358.660 303.151,358.769 301.058 C 358.882 298.891,358.908 298.846,360.019 298.846 C 360.973 298.846,361.154 298.693,361.154 297.885 C 361.154 297.308,361.374 296.923,361.703 296.923 C 362.754 296.923,363.462 295.751,363.462 294.011 C 363.462 292.451,363.542 292.308,364.423 292.308 C 365.235 292.308,365.385 292.128,365.385 291.154 C 365.385 290.128,365.513 290.000,366.538 290.000 C 367.677 290.000,367.692 289.973,367.692 287.933 C 367.692 285.943,367.736 285.857,368.846 285.635 C 369.959 285.412,370.000 285.329,370.000 283.304 C 370.000 281.300,370.048 281.199,371.058 281.083 C 372.041 280.970,372.123 280.822,372.230 278.987 C 372.337 277.142,372.420 276.997,373.480 276.785 C 374.571 276.567,374.615 276.476,374.615 274.459 C 374.615 272.576,374.704 272.349,375.481 272.238 C 376.232 272.132,376.361 271.854,376.461 270.141 C 376.568 268.296,376.651 268.151,377.711 267.939 L 378.846 267.712 378.846 264.433 L 378.846 261.154 380.000 261.154 L 381.154 261.154 381.154 258.846 C 381.154 256.675,381.208 256.538,382.065 256.538 C 383.079 256.538,383.449 255.292,383.457 251.854 C 383.461 250.281,383.571 250.038,384.327 249.931 C 385.158 249.813,385.197 249.637,385.301 245.481 L 385.410 241.154 386.551 241.154 L 387.692 241.154 387.692 236.756 L 387.692 232.359 388.750 232.237 L 389.808 232.115 389.913 225.505 L 390.018 218.896 391.067 218.775 L 392.115 218.654 392.221 191.923 C 392.337 162.867,392.363 163.462,390.954 163.462 L 390.000 163.462 390.000 157.082 L 390.000 150.702 388.846 150.267 C 387.137 149.622,387.059 145.893,388.750 145.699 C 389.574 145.604,389.834 145.348,389.927 144.543 C 390.019 143.743,390.282 143.481,391.081 143.389 C 391.887 143.296,392.142 143.036,392.237 142.212 C 392.346 141.262,392.510 141.154,393.840 141.154 C 395.899 141.154,396.538 140.831,396.538 139.792 C 396.538 139.102,396.780 138.869,397.596 138.776 C 398.427 138.680,398.680 138.427,398.776 137.596 C 398.845 136.991,399.133 136.538,399.449 136.538 C 399.885 136.538,400.000 135.848,400.000 133.241 L 400.000 129.943 398.365 130.089 C 396.861 130.224,396.737 130.318,396.803 131.272 C 396.871 132.249,396.781 132.308,395.200 132.308 C 392.944 132.308,392.308 132.607,392.308 133.669 C 392.308 134.360,392.066 134.592,391.250 134.686 C 390.426 134.781,390.166 135.036,390.073 135.842 C 389.981 136.642,389.718 136.904,388.919 136.996 C 388.109 137.089,387.881 137.324,387.869 138.077 C 387.856 138.878,387.688 139.021,386.861 138.936 C 386.031 138.849,385.830 139.023,385.636 139.993 C 385.451 140.917,385.205 141.154,384.433 141.154 C 383.610 141.154,383.462 141.330,383.462 142.308 C 383.462 143.333,383.333 143.462,382.308 143.462 C 381.287 143.462,381.154 143.592,381.154 144.595 C 381.154 145.692,381.088 145.733,379.135 145.845 C 377.364 145.947,377.100 146.070,376.990 146.842 C 376.902 147.464,376.535 147.789,375.740 147.948 C 374.806 148.135,374.615 148.363,374.615 149.293 C 374.615 150.286,374.495 150.401,373.558 150.303 C 372.657 150.209,372.482 150.349,372.378 151.250 C 372.276 152.136,372.073 152.308,371.128 152.308 C 370.131 152.308,370.000 152.442,370.000 153.462 C 370.000 154.469,369.863 154.615,368.924 154.615 L 367.849 154.615 367.745 159.066 L 367.642 163.518 368.725 163.393 C 369.576 163.296,369.833 163.048,369.927 162.235 C 370.019 161.435,370.282 161.173,371.081 161.081 C 371.887 160.988,372.142 160.728,372.237 159.904 C 372.339 159.018,372.542 158.846,373.487 158.846 C 374.434 158.846,374.615 158.692,374.615 157.885 C 374.615 157.115,374.808 156.923,375.577 156.923 C 376.389 156.923,376.538 156.744,376.538 155.769 C 376.538 154.744,376.667 154.615,377.692 154.615 C 378.718 154.615,378.846 154.487,378.846 153.462 C 378.846 152.319,378.868 152.308,380.962 152.308 C 382.691 152.308,383.090 152.185,383.151 151.635 C 383.192 151.264,383.322 152.692,383.440 154.808 C 383.641 158.428,383.705 158.661,384.519 158.777 C 385.341 158.893,385.385 159.069,385.386 162.238 C 385.390 169.783,385.831 174.231,386.575 174.231 C 386.953 174.231,387.388 174.434,387.542 174.683 C 388.159 175.681,387.930 210.273,387.308 210.126 C 385.864 209.786,385.712 210.461,385.487 218.215 L 385.268 225.769 384.365 225.769 C 383.470 225.769,383.462 225.808,383.462 230.167 L 383.462 234.564 382.404 234.686 L 381.346 234.808 381.238 239.110 L 381.129 243.413 380.084 243.533 C 379.052 243.652,379.037 243.695,378.927 246.789 C 378.824 249.713,378.756 249.939,377.916 250.150 C 376.779 250.435,376.572 251.242,376.826 254.399 L 377.028 256.923 375.822 256.923 C 374.618 256.923,374.615 256.927,374.615 259.013 C 374.615 261.007,374.567 261.108,373.558 261.224 C 372.504 261.346,372.500 261.357,372.389 264.712 L 372.278 268.077 371.139 268.077 C 370.017 268.077,370.000 268.107,370.000 270.167 C 370.000 272.161,369.951 272.262,368.942 272.378 C 367.925 272.495,367.885 272.584,367.888 274.712 C 367.892 276.858,367.861 276.923,366.854 276.923 C 365.907 276.923,365.795 277.082,365.572 278.750 C 365.215 281.412,365.106 281.624,364.233 281.347 C 363.578 281.139,363.462 281.276,363.462 282.256 C 363.462 283.229,363.296 283.430,362.404 283.532 C 361.404 283.647,361.340 283.774,361.232 285.842 C 361.124 287.899,361.055 288.037,360.078 288.149 C 359.115 288.260,359.030 288.416,358.923 290.265 C 358.816 292.113,358.731 292.269,357.769 292.380 C 356.900 292.480,356.743 292.673,356.803 293.558 C 356.867 294.488,356.739 294.615,355.745 294.615 C 354.638 294.615,354.615 294.656,354.615 296.646 C 354.615 298.550,354.543 298.705,353.462 299.113 C 352.599 299.439,352.308 299.794,352.308 300.520 C 352.308 301.340,352.144 301.480,351.250 301.419 C 350.360 301.358,350.173 301.514,350.071 302.404 C 349.975 303.232,349.747 303.462,349.020 303.462 C 348.103 303.462,347.620 304.344,347.758 305.769 C 347.927 307.525,347.679 308.077,346.721 308.077 C 345.964 308.077,345.702 308.315,345.533 309.161 C 345.373 309.962,345.099 310.239,344.485 310.219 C 343.856 310.199,343.624 310.449,343.532 311.250 C 343.430 312.136,343.227 312.308,342.282 312.308 C 341.662 312.308,341.174 312.438,341.199 312.596 C 341.412 313.940,341.077 314.573,340.096 314.686 C 339.265 314.782,339.012 315.035,338.917 315.865 C 338.822 316.685,338.591 316.923,337.890 316.923 C 337.196 316.923,336.925 317.193,336.731 318.077 C 336.534 318.971,336.268 319.231,335.546 319.231 C 334.823 319.231,334.615 319.434,334.615 320.144 C 334.615 320.851,334.355 321.110,333.462 321.288 C 332.555 321.470,332.308 321.722,332.308 322.465 C 332.308 323.210,332.084 323.436,331.250 323.532 C 330.419 323.628,330.166 323.881,330.071 324.712 C 329.975 325.546,329.749 325.769,329.003 325.769 C 328.260 325.769,328.008 326.016,327.827 326.923 C 327.648 327.816,327.390 328.077,326.683 328.077 C 325.962 328.077,325.769 328.282,325.769 329.048 C 325.769 329.815,325.532 330.067,324.637 330.246 C 323.771 330.419,323.476 330.711,323.387 331.486 C 323.295 332.280,323.060 332.500,322.308 332.500 C 321.545 332.500,321.321 332.718,321.224 333.558 C 321.123 334.444,320.919 334.615,319.974 334.615 C 318.983 334.615,318.846 334.752,318.846 335.744 C 318.846 336.689,318.674 336.892,317.788 336.994 C 316.888 337.097,316.747 337.272,316.841 338.173 C 316.951 339.222,316.934 339.231,314.630 339.231 C 312.317 339.231,312.308 339.235,312.308 340.361 C 312.308 341.355,312.180 341.482,311.250 341.419 C 310.366 341.358,310.173 341.516,310.073 342.381 C 309.982 343.168,309.715 343.443,308.955 343.534 C 308.235 343.621,307.917 343.916,307.816 344.592 C 307.633 345.808,307.765 345.739,305.458 345.821 C 303.537 345.889,303.462 345.933,303.462 346.984 C 303.462 347.942,303.319 348.077,302.308 348.077 C 301.290 348.077,301.154 348.209,301.154 349.195 C 301.154 350.121,301.023 350.278,300.389 350.113 C 298.726 349.678,296.909 350.358,296.680 351.502 C 296.487 352.470,296.325 352.568,295.082 352.470 C 293.370 352.334,292.308 352.866,292.308 353.860 C 292.308 354.443,292.044 354.615,291.154 354.615 C 290.128 354.615,290.000 354.744,290.000 355.769 C 290.000 356.911,289.979 356.923,287.885 356.923 C 285.791 356.923,285.769 356.935,285.769 358.077 L 285.769 359.231 283.462 359.231 C 281.284 359.231,281.154 359.283,281.154 360.151 C 281.154 361.167,279.770 361.762,278.410 361.330 C 277.492 361.038,276.538 361.756,276.538 362.739 C 276.538 363.373,276.227 363.462,274.013 363.462 C 271.161 363.462,270.000 363.910,270.000 365.014 C 270.000 365.673,269.731 365.769,267.885 365.769 C 265.791 365.769,265.769 365.781,265.769 366.923 L 265.769 368.077 262.507 368.077 C 259.401 368.077,259.235 368.120,259.018 368.984 C 258.811 369.807,258.521 369.915,255.900 370.136 C 252.547 370.420,252.308 370.522,252.308 371.674 C 252.308 372.501,252.188 372.530,249.038 372.455 L 245.769 372.378 245.769 373.497 L 245.769 374.615 240.801 374.615 C 235.142 374.615,234.615 374.733,234.615 375.994 L 234.615 376.905 227.981 377.010 L 221.346 377.115 221.361 378.173 L 221.376 379.231 198.983 379.231 L 176.590 379.231 176.468 378.173 L 176.346 377.115 169.932 377.010 L 163.519 376.905 163.267 375.760 L 163.016 374.615 158.623 374.615 L 154.231 374.615 154.231 373.654 C 154.231 373.020,154.001 372.670,153.558 372.625 C 152.908 372.561,149.815 372.434,146.827 372.349 C 145.579 372.313,145.385 372.185,145.385 371.398 C 145.385 370.427,143.840 370.000,140.331 370.000 C 139.004 370.000,138.846 369.898,138.846 369.038 C 138.846 368.089,138.805 368.077,135.621 368.077 L 132.395 368.077 132.226 366.923 C 131.899 364.698,132.293 363.516,133.406 363.387 C 134.194 363.296,134.451 363.031,134.545 362.212 C 134.640 361.381,134.867 361.154,135.602 361.154 C 136.344 361.154,136.538 360.955,136.538 360.192 C 136.538 359.380,136.718 359.231,137.692 359.231 C 138.718 359.231,138.846 359.103,138.846 358.077 C 138.846 357.119,139.001 356.923,139.760 356.923 C 141.967 356.923,143.077 356.465,143.077 355.554 C 143.077 354.872,143.321 354.638,144.135 354.545 C 144.965 354.449,145.218 354.196,145.314 353.365 C 145.416 352.480,145.619 352.308,146.564 352.308 C 147.561 352.308,147.692 352.174,147.692 351.154 C 147.692 350.128,147.821 350.000,148.846 350.000 C 149.812 350.000,150.000 349.848,150.000 349.064 C 150.000 348.329,150.227 348.102,151.058 348.006 C 151.882 347.911,152.142 347.656,152.235 346.850 C 152.327 346.051,152.589 345.789,153.389 345.696 C 154.195 345.603,154.450 345.343,154.545 344.519 C 154.656 343.551,154.804 343.462,156.295 343.462 C 158.030 343.462,158.846 342.953,158.846 341.872 C 158.846 341.430,159.204 341.164,159.904 341.083 C 160.661 340.996,160.996 340.716,161.084 340.096 C 161.174 339.467,161.465 339.231,162.152 339.231 C 162.893 339.231,163.146 338.983,163.327 338.077 C 163.506 337.184,163.764 336.923,164.471 336.923 C 165.230 336.923,165.385 336.727,165.385 335.769 C 165.385 334.744,165.513 334.615,166.538 334.615 C 167.564 334.615,167.692 334.487,167.692 333.462 C 167.692 332.332,167.733 332.308,169.635 332.308 C 171.449 332.308,171.605 332.231,171.981 331.154 C 172.276 330.307,172.627 330.000,173.300 330.000 C 173.948 330.000,174.284 329.728,174.449 329.072 C 174.588 328.519,175.057 328.049,175.610 327.911 C 176.271 327.745,176.538 327.410,176.538 326.749 C 176.538 326.022,176.768 325.794,177.596 325.699 C 178.427 325.603,178.680 325.350,178.776 324.519 C 178.877 323.633,179.081 323.462,180.026 323.462 C 181.023 323.462,181.154 323.328,181.154 322.308 C 181.154 321.282,181.282 321.154,182.308 321.154 C 183.329 321.154,183.462 321.023,183.462 320.020 C 183.462 318.924,183.528 318.883,185.481 318.770 C 187.220 318.670,187.517 318.538,187.620 317.814 C 187.701 317.241,188.099 316.895,188.870 316.726 C 189.730 316.537,190.000 316.261,190.000 315.572 C 190.000 314.870,190.238 314.639,191.058 314.545 C 191.882 314.450,192.142 314.195,192.235 313.389 C 192.327 312.589,192.589 312.327,193.389 312.235 C 194.195 312.142,194.450 311.882,194.545 311.058 C 194.640 310.227,194.867 310.000,195.602 310.000 C 196.344 310.000,196.538 309.801,196.538 309.038 C 196.538 308.226,196.718 308.077,197.692 308.077 C 198.718 308.077,198.846 307.949,198.846 306.923 C 198.846 305.879,198.965 305.769,200.096 305.764 C 202.246 305.755,203.077 305.376,203.077 304.404 C 203.077 303.718,203.320 303.485,204.135 303.391 C 204.965 303.295,205.218 303.042,205.314 302.212 C 205.416 301.326,205.619 301.154,206.564 301.154 C 207.561 301.154,207.692 301.020,207.692 300.000 C 207.692 298.974,207.821 298.846,208.846 298.846 C 209.812 298.846,210.000 298.694,210.000 297.910 C 210.000 297.175,210.227 296.948,211.058 296.852 C 211.888 296.757,212.141 296.504,212.237 295.673 C 212.339 294.787,212.542 294.615,213.487 294.615 C 214.480 294.615,214.615 294.479,214.615 293.482 C 214.615 292.385,214.682 292.344,216.635 292.232 C 218.506 292.124,218.663 292.040,218.773 291.081 C 218.866 290.282,219.128 290.019,219.927 289.927 C 220.661 289.842,220.997 289.556,221.084 288.942 C 221.174 288.313,221.465 288.077,222.152 288.077 C 222.893 288.077,223.146 287.829,223.327 286.923 C 223.506 286.030,223.764 285.769,224.471 285.769 C 225.230 285.769,225.385 285.574,225.385 284.615 C 225.385 283.590,225.513 283.462,226.538 283.462 C 227.564 283.462,227.692 283.333,227.692 282.308 C 227.692 281.178,227.733 281.154,229.635 281.154 C 231.449 281.154,231.605 281.077,231.981 280.000 C 232.276 279.153,232.627 278.846,233.300 278.846 C 233.956 278.846,234.284 278.574,234.457 277.885 L 234.699 276.923 241.869 276.865 C 245.812 276.834,248.563 276.736,247.981 276.648 C 247.399 276.559,246.907 276.283,246.888 276.032 C 246.868 275.782,246.871 272.202,246.894 268.077 C 246.940 259.784,246.910 259.668,244.492 258.658 C 241.956 257.598,238.973 257.870,238.272 259.225 C 237.564 260.594,236.737 260.848,233.490 260.694 C 231.029 260.576,230.744 260.407,230.232 258.750 C 230.036 258.116,228.052 258.077,195.660 258.077 L 161.296 258.077 160.654 259.423 L 160.012 260.769 156.933 260.769 L 153.853 260.769 152.984 259.428 L 152.115 258.086 148.830 258.082 L 145.544 258.077 145.176 259.327 C 144.541 261.482,138.725 261.408,137.438 259.229 C 136.276 257.262,131.235 257.683,129.804 259.867 C 129.280 260.667,128.919 260.769,126.626 260.764 C 123.223 260.757,122.614 260.559,121.840 259.210 C 120.966 257.688,114.615 257.750,114.615 259.281 C 114.615 261.530,108.244 261.294,106.422 258.977 C 105.209 257.436,101.743 257.672,99.887 259.423 C 98.076 261.132,93.605 261.460,92.555 259.962 C 90.899 257.598,86.289 257.298,84.284 259.423 C 82.609 261.199,76.923 261.469,76.923 259.772 C 76.923 258.936,74.354 258.077,71.856 258.077 C 69.277 258.077,66.653 256.891,66.327 255.577 C 66.222 255.154,66.183 225.130,66.241 188.857 L 66.346 122.907 68.077 122.243 C 69.697 121.623,75.486 121.579,158.343 121.559 C 214.837 121.546,246.961 121.404,247.107 121.167 C 247.234 120.963,247.058 119.836,246.717 118.664 C 246.158 116.741,246.110 111.531,246.222 65.574 L 246.346 14.615 192.470 14.615 L 138.595 14.615 138.764 13.462 L 138.933 12.308 142.159 12.308 L 145.385 12.308 145.385 11.166 L 145.385 10.025 149.695 9.916 C 153.938 9.809,154.009 9.793,154.231 8.846 C 154.453 7.899,154.523 7.883,158.779 7.776 L 163.101 7.667 163.328 6.534 L 163.555 5.401 171.104 5.296 C 178.605 5.193,178.655 5.187,178.777 4.327 L 178.900 3.462 198.831 3.462 L 218.763 3.462 219.004 4.423 L 219.245 5.385 226.930 5.385 L 234.615 5.385 234.615 6.538 L 234.615 7.692 239.013 7.692 L 243.410 7.692 243.532 8.750 L 243.654 9.808 247.956 9.916 L 252.259 10.025 252.379 11.070 C 252.499 12.103,252.538 12.117,255.673 12.227 C 258.732 12.335,258.846 12.372,258.846 13.259 C 258.846 13.805,259.119 14.257,259.519 14.371 C 260.879 14.760,273.939 15.085,277.491 14.818 L 281.154 14.544 281.154 13.426 C 281.154 12.422,281.281 12.307,282.404 12.302 C 284.554 12.293,285.385 11.914,285.385 10.942 C 285.385 10.256,285.628 10.023,286.442 9.929 C 287.266 9.835,287.526 9.579,287.619 8.773 C 287.712 7.974,287.974 7.712,288.773 7.619 C 289.573 7.527,289.835 7.265,289.927 6.466 C 290.019 5.666,290.282 5.404,291.081 5.312 C 292.197 5.183,292.605 3.931,292.138 2.069 C 291.920 1.202,291.749 1.154,288.869 1.154 L 285.830 1.154 285.581 2.289 C 285.349 3.346,285.197 3.431,283.339 3.539 C 281.496 3.645,281.337 3.732,281.227 4.688 C 281.134 5.488,280.872 5.750,280.073 5.842 C 279.273 5.934,279.011 6.196,278.919 6.998 C 278.835 7.720,278.630 7.970,278.241 7.820 C 277.506 7.539,276.538 8.367,276.538 9.278 C 276.538 9.792,276.261 10.000,275.577 10.000 C 274.765 10.000,274.615 10.179,274.615 11.154 C 274.615 12.893,270.129 12.985,269.929 11.250 C 269.814 10.249,269.690 10.186,267.596 10.077 C 265.537 9.970,265.385 9.897,265.385 9.019 C 265.385 7.983,265.400 7.987,261.550 7.895 C 259.252 7.840,259.045 7.764,258.842 6.899 C 258.602 5.875,256.933 5.504,252.212 5.423 C 250.119 5.387,250.000 5.333,250.000 4.423 L 250.000 3.462 245.602 3.462 L 241.205 3.462 241.083 2.404 L 240.962 1.346 234.327 1.241 C 228.781 1.153,227.692 1.043,227.692 0.568 C 227.692 0.072,223.889 0.000,197.692 0.000 C 171.538 0.000,167.692 0.073,167.692 0.566 M262.329 28.189 C 260.581 28.752,256.018 33.090,255.033 35.124 C 254.092 37.069,253.682 111.921,254.595 115.308 C 255.129 117.293,258.355 121.235,260.794 122.885 L 262.500 124.038 302.500 124.038 L 342.500 124.038 343.846 123.095 C 345.938 121.628,349.272 118.059,349.957 116.554 C 351.192 113.841,351.232 36.880,350.000 35.153 C 348.555 33.128,345.067 29.483,343.846 28.723 L 342.500 27.885 303.077 27.823 C 275.092 27.780,263.270 27.886,262.329 28.189 M344.447 56.163 C 346.375 56.896,345.155 61.282,342.140 64.455 C 341.280 65.360,340.002 67.048,339.300 68.207 C 338.597 69.366,337.680 70.624,337.262 71.003 C 336.844 71.381,336.239 72.246,335.917 72.924 C 335.595 73.603,334.552 74.911,333.600 75.829 C 332.077 77.300,330.690 78.839,325.607 84.696 C 324.926 85.481,324.036 86.779,323.630 87.581 C 323.224 88.382,322.353 89.731,321.695 90.577 C 321.037 91.423,320.218 92.635,319.877 93.269 C 317.826 97.077,313.453 98.019,310.438 95.301 C 309.207 94.191,308.049 93.634,305.772 93.053 C 304.443 92.714,303.508 92.058,301.733 90.218 C 298.496 86.863,296.470 85.505,293.914 84.975 C 292.713 84.726,291.389 84.284,290.972 83.992 C 289.236 82.778,285.266 84.340,281.538 87.705 C 280.375 88.755,279.261 89.614,279.063 89.615 C 278.865 89.615,278.346 89.936,277.909 90.328 C 277.473 90.721,275.990 91.629,274.615 92.348 C 273.240 93.066,272.029 93.746,271.923 93.859 C 267.973 98.070,262.539 100.768,260.359 99.602 C 258.703 98.715,260.109 93.788,262.660 91.538 C 263.260 91.010,264.323 89.625,265.023 88.462 C 265.723 87.298,266.869 85.697,267.571 84.903 C 268.272 84.109,268.846 83.277,268.846 83.054 C 268.846 82.831,270.274 81.159,272.019 79.340 C 276.785 74.370,276.923 74.218,276.923 73.916 C 276.923 73.762,277.861 72.629,279.007 71.398 C 280.153 70.166,281.313 68.612,281.585 67.945 C 281.857 67.277,282.737 65.893,283.540 64.869 C 284.343 63.846,285.000 62.798,285.000 62.541 C 285.000 59.221,291.774 58.039,294.839 60.824 C 295.280 61.224,296.663 61.911,297.912 62.350 C 301.162 63.492,301.378 63.639,304.706 66.967 C 306.975 69.236,308.114 70.083,309.338 70.411 C 310.231 70.650,311.740 71.103,312.692 71.416 C 313.644 71.730,314.869 72.074,315.414 72.181 C 316.600 72.414,321.164 70.454,321.963 69.370 C 322.258 68.969,322.933 68.345,323.462 67.985 C 323.990 67.624,325.288 66.711,326.346 65.956 C 327.404 65.201,329.126 64.137,330.174 63.592 C 332.354 62.457,333.817 61.435,335.530 59.851 C 339.155 56.498,342.112 55.275,344.447 56.163 M52.308 138.462 L 52.308 201.154 51.154 201.154 C 50.128 201.154,50.000 201.282,50.000 202.308 C 50.000 203.339,49.875 203.462,48.820 203.462 C 47.873 203.462,47.682 203.594,47.850 204.135 C 48.198 205.253,47.582 205.714,45.569 205.841 C 43.801 205.952,43.645 206.043,43.532 207.019 C 43.430 207.905,43.227 208.077,42.282 208.077 C 41.335 208.077,41.154 208.231,41.154 209.038 C 41.154 209.708,40.944 210.000,40.462 210.000 C 39.575 210.000,38.846 210.729,38.846 211.615 C 38.846 212.099,38.554 212.308,37.875 212.308 C 37.108 212.308,36.856 212.545,36.677 213.441 C 36.523 214.213,36.189 214.611,35.629 214.691 C 35.056 214.772,34.771 215.127,34.686 215.865 C 34.584 216.751,34.381 216.923,33.436 216.923 C 32.456 216.923,32.308 217.065,32.308 218.003 C 32.308 219.041,32.231 219.085,30.365 219.113 C 28.159 219.146,28.020 219.224,27.943 220.464 C 27.900 221.153,27.663 221.360,26.924 221.354 C 26.158 221.348,25.937 221.562,25.840 222.404 C 25.738 223.290,25.535 223.462,24.590 223.462 C 23.593 223.462,23.462 223.596,23.462 224.615 C 23.462 225.641,23.333 225.769,22.308 225.769 C 21.282 225.769,21.154 225.897,21.154 226.923 C 21.154 227.949,21.026 228.077,20.000 228.077 C 18.987 228.077,18.846 228.211,18.846 229.176 C 18.846 230.129,18.705 230.270,17.788 230.234 C 16.856 230.197,16.744 230.318,16.841 231.250 C 16.941 232.196,16.829 232.308,15.784 232.308 L 14.615 232.308 14.611 227.212 C 14.606 220.420,14.398 219.231,13.219 219.231 L 12.308 219.231 12.302 210.096 C 12.297 199.781,12.226 199.231,10.917 199.231 L 10.000 199.231 10.000 190.192 L 10.000 181.154 10.920 181.154 C 12.264 181.154,12.308 180.820,12.308 170.545 L 12.308 161.154 13.228 161.154 C 14.499 161.154,14.615 160.634,14.615 154.969 L 14.615 150.000 15.577 150.000 L 16.538 150.000 16.538 145.577 L 16.538 141.154 17.692 141.154 L 18.846 141.154 18.846 137.915 L 18.846 134.677 20.000 134.423 L 21.154 134.170 21.154 130.931 C 21.154 127.771,21.176 127.692,22.074 127.692 C 23.247 127.692,23.462 127.091,23.462 123.815 C 23.462 121.233,23.490 121.154,24.423 121.154 C 25.342 121.154,25.385 121.051,25.385 118.846 L 25.385 116.538 26.538 116.538 C 27.679 116.538,27.692 116.514,27.692 114.449 C 27.692 112.455,27.741 112.353,28.750 112.237 C 29.751 112.122,29.814 111.997,29.923 109.904 C 30.029 107.874,30.112 107.692,30.940 107.692 C 31.988 107.692,32.308 107.056,32.308 104.969 C 32.308 103.727,32.441 103.462,33.063 103.462 C 33.887 103.462,34.698 102.281,34.593 101.235 C 34.405 99.360,34.617 98.846,35.577 98.846 C 36.486 98.846,36.538 98.731,36.538 96.731 C 36.538 94.637,36.550 94.615,37.692 94.615 C 38.712 94.615,38.846 94.484,38.846 93.487 C 38.846 92.542,39.018 92.339,39.904 92.237 C 40.905 92.122,40.968 91.997,41.077 89.904 C 41.190 87.737,41.215 87.692,42.327 87.692 C 43.267 87.692,43.462 87.535,43.462 86.772 C 43.462 86.112,43.733 85.785,44.423 85.611 C 45.302 85.391,45.385 85.190,45.385 83.262 C 45.385 81.176,45.397 81.154,46.538 81.154 C 47.564 81.154,47.692 81.026,47.692 80.000 C 47.692 78.974,47.821 78.846,48.846 78.846 C 49.872 78.846,50.000 78.718,50.000 77.692 C 50.000 76.718,50.150 76.538,50.962 76.538 C 51.490 76.538,51.923 76.365,51.923 76.154 C 51.923 75.942,52.010 75.769,52.115 75.769 C 52.221 75.769,52.308 103.981,52.308 138.462 M205.385 191.154 L 205.385 236.923 226.154 236.923 L 246.923 236.923 246.923 225.552 C 246.923 212.739,246.914 212.692,244.506 212.693 C 239.408 212.695,232.647 211.777,231.770 210.964 C 231.280 210.510,230.341 209.916,229.683 209.644 C 229.025 209.371,228.389 208.839,228.269 208.462 C 228.149 208.084,227.707 207.685,227.287 207.575 C 226.866 207.465,226.336 206.841,226.108 206.188 C 225.880 205.534,225.493 205.000,225.247 205.000 C 224.644 205.000,224.004 203.910,223.660 202.295 C 223.504 201.562,223.153 200.702,222.880 200.385 C 221.196 198.426,221.135 189.725,222.799 188.794 C 223.114 188.618,223.493 187.648,223.641 186.640 C 223.800 185.560,224.272 184.413,224.793 183.846 C 225.279 183.317,225.891 182.214,226.153 181.394 C 226.425 180.545,226.931 179.825,227.331 179.721 C 227.717 179.620,228.140 179.052,228.270 178.458 C 228.428 177.740,228.820 177.301,229.446 177.144 C 229.962 177.014,230.385 176.657,230.385 176.349 C 230.385 176.041,230.897 175.524,231.523 175.200 C 232.149 174.877,233.093 174.180,233.621 173.652 C 234.149 173.124,235.011 172.692,235.538 172.692 C 236.072 172.692,236.743 172.338,237.056 171.891 C 237.713 170.953,239.749 170.407,242.633 170.394 C 244.084 170.387,245.018 170.151,245.806 169.589 L 246.923 168.794 246.923 157.089 L 246.923 145.385 226.154 145.385 L 205.385 145.385 205.385 191.154 M93.462 179.955 C 93.462 181.586,92.058 181.528,131.635 181.533 L 168.077 181.538 168.077 180.192 L 168.077 178.846 130.769 178.846 L 93.462 178.846 93.462 179.955 M93.462 193.417 C 93.462 195.047,92.058 194.989,131.635 194.995 L 168.077 195.000 168.077 193.654 L 168.077 192.308 130.769 192.308 L 93.462 192.308 93.462 193.417 M93.942 205.639 C 93.678 205.746,93.462 206.338,93.462 206.955 L 93.462 208.077 130.769 208.077 L 168.077 208.077 168.077 206.731 L 168.077 205.385 131.250 205.415 C 110.995 205.432,94.207 205.533,93.942 205.639 " stroke="none" fill="#3c3e48" fill-rule="evenodd"></path><path id="path2" d="M339.615 59.895 C 339.087 59.991,338.394 60.292,338.077 60.562 C 337.226 61.288,330.434 65.844,328.663 66.877 C 327.822 67.367,325.572 68.936,323.663 70.363 C 316.781 75.506,316.276 75.652,312.294 73.647 C 310.816 72.903,308.700 71.952,307.592 71.534 C 306.185 71.004,304.679 69.917,302.605 67.934 C 300.166 65.603,299.080 64.870,296.542 63.848 C 294.842 63.162,293.359 62.454,293.248 62.273 C 292.090 60.399,288.280 61.375,286.682 63.953 C 286.129 64.846,285.245 66.040,284.717 66.605 C 284.190 67.171,283.216 68.490,282.552 69.536 C 280.745 72.387,277.846 75.982,274.578 79.423 C 272.972 81.115,271.131 83.279,270.489 84.231 C 269.846 85.183,268.936 86.308,268.465 86.731 C 267.995 87.154,267.265 88.176,266.844 89.002 C 266.422 89.828,265.402 91.358,264.577 92.402 C 262.814 94.632,262.726 95.241,264.074 95.856 C 265.216 96.376,264.913 96.523,270.656 92.655 C 272.728 91.259,275.462 89.462,276.731 88.661 C 278.000 87.860,279.817 86.559,280.769 85.769 C 286.280 81.197,289.127 80.216,292.052 81.882 C 293.145 82.504,295.206 83.478,296.632 84.046 C 298.614 84.836,299.987 85.787,302.453 88.077 C 304.228 89.725,306.089 91.188,306.590 91.327 C 307.090 91.467,309.007 92.279,310.849 93.133 C 315.119 95.112,316.730 94.774,318.463 91.535 C 318.709 91.076,319.469 90.067,320.152 89.293 C 320.835 88.518,321.755 87.255,322.197 86.485 C 323.353 84.471,326.616 80.422,330.385 76.326 C 333.960 72.440,336.107 69.762,337.887 66.969 C 338.524 65.971,339.576 64.470,340.227 63.635 C 340.877 62.799,341.533 61.903,341.684 61.643 C 341.975 61.141,341.317 59.579,340.852 59.668 C 340.701 59.697,340.144 59.799,339.615 59.895 M112.435 122.212 C 135.879 122.266,174.129 122.266,197.435 122.212 C 220.740 122.157,201.558 122.112,154.808 122.112 C 108.058 122.112,88.990 122.157,112.435 122.212 M244.418 122.209 C 245.262 122.295,246.170 122.546,246.437 122.768 C 247.117 123.332,247.139 141.938,246.462 142.615 C 246.114 142.963,240.990 143.078,225.788 143.082 L 205.577 143.086 204.712 144.422 L 203.846 145.758 203.846 191.466 L 203.846 237.174 204.736 238.010 L 205.627 238.846 225.900 238.846 L 246.173 238.846 246.548 239.833 C 246.754 240.375,246.923 244.075,246.923 248.055 C 246.923 256.781,247.178 256.345,242.154 256.199 L 238.604 256.095 236.936 257.489 C 234.712 259.347,232.174 259.352,231.152 257.500 L 230.514 256.346 195.551 256.346 L 160.587 256.346 160.081 257.402 C 159.136 259.375,155.613 259.321,153.729 257.304 C 152.063 255.522,145.631 255.660,144.617 257.500 C 143.550 259.438,140.660 259.351,138.532 257.317 C 137.363 256.200,137.178 256.154,133.877 256.154 C 130.309 256.154,129.762 256.365,128.830 258.107 C 128.159 259.360,123.077 258.700,123.077 257.360 C 123.077 255.560,115.358 255.676,113.743 257.500 C 112.142 259.308,110.169 259.382,108.410 257.701 C 106.139 255.530,99.891 255.475,98.219 257.610 C 96.817 259.402,94.486 259.397,93.008 257.600 L 91.978 256.346 88.169 256.346 C 84.419 256.346,84.337 256.366,82.935 257.596 C 80.778 259.491,77.592 259.123,76.849 256.894 C 76.754 256.608,75.328 256.349,73.023 256.199 C 70.798 256.055,69.098 255.753,68.713 255.434 C 68.126 254.946,68.077 249.836,68.077 189.050 L 68.077 123.194 68.942 122.777 C 69.418 122.548,69.585 122.348,69.313 122.334 C 69.042 122.319,68.392 122.587,67.871 122.929 L 66.923 123.550 66.923 189.249 L 66.923 254.948 68.040 255.743 C 68.930 256.377,69.742 256.538,72.034 256.538 C 74.877 256.538,74.937 256.560,77.014 258.269 C 78.396 259.407,79.485 260.000,80.192 260.000 C 80.900 260.000,81.989 259.407,83.371 258.269 C 86.609 255.603,90.392 255.811,93.245 258.812 C 94.944 260.599,96.421 260.451,98.633 258.269 L 100.389 256.538 103.204 256.538 C 105.728 256.538,106.116 256.640,106.946 257.524 C 109.611 260.361,112.246 260.724,113.763 258.462 C 115.273 256.209,120.812 255.565,122.077 257.495 C 124.061 260.523,130.000 260.473,130.000 257.428 C 130.000 256.171,136.566 256.162,137.568 257.416 C 140.198 260.709,144.174 260.703,145.174 257.404 C 145.624 255.921,151.941 256.098,153.028 257.624 C 155.016 260.416,158.651 260.587,160.353 257.969 L 161.283 256.538 195.834 256.538 C 222.258 256.538,230.385 256.646,230.385 256.995 C 230.385 260.539,235.792 260.728,238.214 257.270 C 238.766 256.481,239.022 256.443,242.502 256.625 C 247.615 256.892,247.308 257.477,247.308 247.473 C 247.308 236.359,250.260 237.692,225.654 237.692 C 210.521 237.692,205.424 237.578,205.077 237.231 C 204.464 236.618,204.402 146.117,205.014 144.975 C 205.399 144.254,206.036 144.231,225.761 144.231 L 246.110 144.231 246.709 143.376 C 247.489 142.262,247.614 123.153,246.846 122.385 C 246.592 122.131,245.597 121.952,244.635 121.988 L 242.885 122.052 244.418 122.209 M240.996 171.759 C 238.496 172.675,235.263 174.288,234.002 175.248 C 233.348 175.746,232.720 176.154,232.608 176.154 C 231.782 176.154,226.923 182.017,226.923 183.014 C 226.923 183.201,226.495 183.985,225.971 184.756 C 223.037 189.080,222.892 200.141,225.728 203.248 C 226.125 203.683,226.570 204.435,226.717 204.919 C 226.864 205.403,227.663 206.248,228.492 206.797 C 229.321 207.345,230.000 207.924,230.000 208.081 C 230.000 208.239,230.563 208.593,231.250 208.867 C 231.938 209.141,233.019 209.724,233.654 210.163 C 235.565 211.485,246.336 211.616,246.760 210.322 C 247.253 208.820,247.004 172.291,246.496 171.680 C 245.930 170.997,242.958 171.040,240.996 171.759 M318.706 175.400 C 315.357 175.969,313.663 178.320,313.343 182.846 C 313.043 187.080,313.061 187.068,306.713 187.161 C 300.056 187.258,299.820 187.107,299.248 182.375 C 298.524 176.391,297.582 175.577,291.384 175.577 C 285.058 175.577,282.217 177.797,281.538 183.273 C 281.364 184.680,281.162 185.874,281.091 185.927 C 279.547 187.082,278.805 187.308,276.549 187.314 C 273.328 187.322,271.352 188.369,270.001 190.781 L 269.038 192.500 268.925 207.881 C 268.787 226.784,269.065 227.968,273.997 229.432 C 276.859 230.282,336.225 230.280,339.087 229.430 C 343.681 228.066,343.877 227.208,343.855 208.622 C 343.831 188.499,343.637 187.932,336.539 187.307 C 331.894 186.899,331.748 186.738,331.395 181.658 C 331.099 177.403,329.823 176.034,325.733 175.582 C 321.513 175.114,320.537 175.089,318.706 175.400 M326.245 178.174 C 328.457 179.186,328.536 179.334,329.987 185.192 C 330.611 187.713,331.961 188.846,334.342 188.848 C 341.922 188.856,342.423 190.210,342.239 210.192 C 342.052 230.505,346.006 228.462,306.887 228.462 C 285.759 228.462,276.782 228.335,275.739 228.023 C 273.513 227.356,271.721 225.679,271.188 223.767 C 270.493 221.268,270.764 193.655,271.498 192.225 C 272.351 190.563,274.605 189.235,276.960 189.007 C 281.368 188.579,281.407 188.563,282.214 186.817 C 282.627 185.923,283.071 184.634,283.202 183.951 C 284.628 176.487,295.949 174.993,297.119 182.115 C 298.154 188.414,298.762 188.846,306.590 188.846 C 314.161 188.846,315.000 188.305,315.000 183.417 C 315.000 177.828,320.197 175.405,326.245 178.174 M91.937 178.436 C 91.399 179.441,91.433 181.279,92.000 181.846 C 92.612 182.458,167.731 182.520,168.871 181.910 C 169.850 181.386,169.875 179.201,168.912 178.329 C 167.727 177.256,92.512 177.361,91.937 178.436 M168.385 178.538 C 169.068 179.221,168.966 181.410,168.238 181.690 C 167.437 181.997,93.917 181.983,92.768 181.675 C 91.180 181.250,91.718 178.724,93.462 178.416 C 96.218 177.929,167.892 178.046,168.385 178.538 M92.982 191.045 C 91.005 191.344,90.924 195.017,92.885 195.433 C 95.134 195.911,167.578 195.805,168.636 195.323 C 169.951 194.723,170.016 192.573,168.750 191.517 C 167.936 190.838,97.253 190.397,92.982 191.045 M168.385 192.000 C 169.068 192.683,168.966 194.872,168.238 195.151 C 167.425 195.463,95.987 195.452,93.708 195.140 C 91.596 194.851,90.970 192.666,92.788 191.935 C 94.191 191.371,167.819 191.435,168.385 192.000 M246.525 193.436 C 247.436 195.138,246.582 200.769,245.413 200.769 C 244.936 200.769,244.033 199.398,243.640 198.077 C 243.483 197.548,242.946 196.734,242.447 196.268 C 241.337 195.233,241.299 194.470,242.308 193.462 C 243.358 192.412,245.968 192.396,246.525 193.436 M91.945 205.165 C 91.112 206.170,91.597 208.586,92.692 208.889 C 94.472 209.380,167.549 209.279,168.636 208.784 C 169.906 208.206,170.065 205.653,168.871 205.014 C 167.585 204.325,92.520 204.474,91.945 205.165 M168.238 205.233 C 168.966 205.513,169.068 207.702,168.385 208.385 C 167.871 208.899,96.537 209.038,93.654 208.531 C 91.738 208.194,91.033 205.606,92.767 205.274 C 94.148 205.010,167.553 204.971,168.238 205.233 " stroke="none" fill="#878287" fill-rule="evenodd"></path><path id="path3" d="M246.433 15.360 C 245.863 17.540,246.150 116.828,246.732 118.759 C 247.068 119.874,247.238 120.956,247.110 121.162 C 246.960 121.406,215.590 121.546,158.343 121.559 C 75.486 121.579,69.697 121.623,68.077 122.243 L 66.346 122.907 66.241 188.857 C 66.183 225.130,66.222 255.154,66.327 255.577 C 66.653 256.891,69.277 258.077,71.856 258.077 C 74.354 258.077,76.923 258.936,76.923 259.772 C 76.923 261.469,82.609 261.199,84.284 259.423 C 86.289 257.298,90.899 257.598,92.555 259.962 C 93.605 261.460,98.076 261.132,99.887 259.423 C 101.743 257.672,105.209 257.436,106.422 258.977 C 108.244 261.294,114.615 261.530,114.615 259.281 C 114.615 257.750,120.966 257.688,121.840 259.210 C 122.614 260.559,123.223 260.757,126.626 260.764 C 128.919 260.769,129.280 260.667,129.804 259.867 C 131.235 257.683,136.276 257.262,137.438 259.229 C 138.725 261.408,144.541 261.482,145.176 259.327 L 145.544 258.077 148.830 258.082 L 152.115 258.086 152.984 259.428 L 153.853 260.769 156.933 260.769 L 160.012 260.769 160.654 259.423 L 161.296 258.077 195.660 258.077 C 228.052 258.077,230.036 258.116,230.232 258.750 C 230.744 260.407,231.029 260.576,233.490 260.694 C 236.737 260.848,237.564 260.594,238.272 259.225 C 238.973 257.870,241.956 257.598,244.492 258.658 C 246.921 259.673,246.940 259.751,246.859 268.361 C 246.819 272.642,246.918 276.277,247.079 276.438 C 247.240 276.599,274.487 276.774,307.628 276.828 L 367.885 276.925 367.789 216.059 C 367.737 182.582,367.694 123.557,367.693 84.891 L 367.692 14.591 307.148 14.650 C 250.642 14.706,246.592 14.753,246.433 15.360 M343.846 28.723 C 345.067 29.483,348.555 33.128,350.000 35.153 C 351.232 36.880,351.192 113.841,349.957 116.554 C 349.272 118.059,345.938 121.628,343.846 123.095 L 342.500 124.038 302.500 124.038 L 262.500 124.038 260.794 122.885 C 258.355 121.235,255.129 117.293,254.595 115.308 C 253.682 111.921,254.092 37.069,255.033 35.124 C 256.018 33.090,260.581 28.752,262.329 28.189 C 263.270 27.886,275.092 27.780,303.077 27.823 L 342.500 27.885 343.846 28.723 M340.577 56.424 C 338.914 57.088,337.421 58.102,335.530 59.851 C 333.817 61.435,332.354 62.457,330.174 63.592 C 329.126 64.137,327.404 65.201,326.346 65.956 C 325.288 66.711,323.990 67.624,323.462 67.985 C 322.933 68.345,322.258 68.969,321.963 69.370 C 321.164 70.454,316.600 72.414,315.414 72.181 C 314.869 72.074,313.644 71.730,312.692 71.416 C 311.740 71.103,310.231 70.650,309.338 70.411 C 308.114 70.083,306.975 69.236,304.706 66.967 C 301.378 63.639,301.162 63.492,297.912 62.350 C 296.663 61.911,295.280 61.224,294.839 60.824 C 291.774 58.039,285.000 59.221,285.000 62.541 C 285.000 62.798,284.343 63.846,283.540 64.869 C 282.737 65.893,281.857 67.277,281.585 67.945 C 281.313 68.612,280.153 70.166,279.007 71.398 C 277.861 72.629,276.923 73.762,276.923 73.916 C 276.923 74.218,276.785 74.370,272.019 79.340 C 270.274 81.159,268.846 82.831,268.846 83.054 C 268.846 83.277,268.272 84.109,267.571 84.903 C 266.869 85.697,265.723 87.298,265.023 88.462 C 264.323 89.625,263.260 91.010,262.660 91.538 C 260.109 93.788,258.703 98.715,260.359 99.602 C 262.539 100.768,267.973 98.070,271.923 93.859 C 272.029 93.746,273.240 93.066,274.615 92.348 C 275.990 91.629,277.473 90.721,277.909 90.328 C 278.346 89.936,278.865 89.615,279.063 89.615 C 279.261 89.614,280.375 88.755,281.538 87.705 C 285.266 84.340,289.236 82.778,290.972 83.992 C 291.389 84.284,292.713 84.726,293.914 84.975 C 296.470 85.505,298.496 86.863,301.733 90.218 C 303.508 92.058,304.443 92.714,305.772 93.053 C 308.049 93.634,309.207 94.191,310.438 95.301 C 313.453 98.019,317.826 97.077,319.877 93.269 C 320.218 92.635,321.037 91.423,321.695 90.577 C 322.353 89.731,323.224 88.382,323.630 87.581 C 324.036 86.779,324.926 85.481,325.607 84.696 C 330.690 78.839,332.077 77.300,333.600 75.829 C 334.552 74.911,335.595 73.603,335.917 72.924 C 336.239 72.246,336.844 71.381,337.262 71.003 C 337.680 70.624,338.597 69.366,339.300 68.207 C 340.002 67.048,341.280 65.360,342.140 64.455 C 347.127 59.207,346.152 54.196,340.577 56.424 M341.543 60.393 C 342.004 61.255,341.923 61.456,340.227 63.635 C 339.576 64.470,338.524 65.971,337.887 66.969 C 336.107 69.762,333.960 72.440,330.385 76.326 C 326.616 80.422,323.353 84.471,322.197 86.485 C 321.755 87.255,320.835 88.518,320.152 89.293 C 319.469 90.067,318.709 91.076,318.463 91.535 C 316.730 94.774,315.119 95.112,310.849 93.133 C 309.007 92.279,307.090 91.467,306.590 91.327 C 306.089 91.188,304.228 89.725,302.453 88.077 C 299.987 85.787,298.614 84.836,296.632 84.046 C 295.206 83.478,293.145 82.504,292.052 81.882 C 289.127 80.216,286.280 81.197,280.769 85.769 C 279.817 86.559,278.000 87.860,276.731 88.661 C 275.462 89.462,272.728 91.259,270.656 92.655 C 264.913 96.523,265.216 96.376,264.074 95.856 C 262.726 95.241,262.814 94.632,264.577 92.402 C 265.402 91.358,266.422 89.828,266.844 89.002 C 267.265 88.176,267.995 87.154,268.465 86.731 C 268.936 86.308,269.846 85.183,270.489 84.231 C 271.131 83.279,272.972 81.115,274.578 79.423 C 277.846 75.982,280.745 72.387,282.552 69.536 C 283.216 68.490,284.190 67.171,284.717 66.605 C 285.245 66.040,286.129 64.846,286.682 63.953 C 288.280 61.375,292.090 60.399,293.248 62.273 C 293.359 62.454,294.842 63.162,296.542 63.848 C 299.080 64.870,300.166 65.603,302.605 67.934 C 304.679 69.917,306.185 71.004,307.592 71.534 C 308.700 71.952,310.816 72.903,312.294 73.647 C 316.276 75.652,316.781 75.506,323.663 70.363 C 325.572 68.936,327.822 67.367,328.663 66.877 C 330.434 65.844,337.226 61.288,338.077 60.562 C 338.394 60.292,339.087 59.991,339.615 59.895 C 340.144 59.799,340.701 59.697,340.852 59.668 C 341.003 59.639,341.314 59.965,341.543 60.393 M246.807 122.371 C 247.612 123.039,247.523 142.213,246.709 143.376 L 246.110 144.231 225.761 144.231 C 206.036 144.231,205.399 144.254,205.014 144.975 C 204.402 146.117,204.464 236.618,205.077 237.231 C 205.424 237.578,210.521 237.692,225.654 237.692 C 250.260 237.692,247.308 236.359,247.308 247.473 C 247.308 257.477,247.615 256.892,242.502 256.625 C 239.022 256.443,238.766 256.481,238.214 257.270 C 235.792 260.728,230.385 260.539,230.385 256.995 C 230.385 256.646,222.258 256.538,195.834 256.538 L 161.283 256.538 160.353 257.969 C 158.651 260.587,155.016 260.416,153.028 257.624 C 151.941 256.098,145.624 255.921,145.174 257.404 C 144.174 260.703,140.198 260.709,137.568 257.416 C 136.566 256.162,130.000 256.171,130.000 257.428 C 130.000 260.473,124.061 260.523,122.077 257.495 C 120.812 255.565,115.273 256.209,113.763 258.462 C 112.246 260.724,109.611 260.361,106.946 257.524 C 106.116 256.640,105.728 256.538,103.204 256.538 L 100.389 256.538 98.633 258.269 C 96.421 260.451,94.944 260.599,93.245 258.812 C 90.392 255.811,86.609 255.603,83.371 258.269 C 81.989 259.407,80.900 260.000,80.192 260.000 C 79.485 260.000,78.396 259.407,77.014 258.269 C 74.937 256.560,74.877 256.538,72.034 256.538 C 69.742 256.538,68.930 256.377,68.040 255.743 L 66.923 254.948 66.923 189.249 L 66.923 123.550 67.804 122.972 C 68.289 122.655,69.025 122.307,69.439 122.200 C 71.064 121.779,246.297 121.947,246.807 122.371 M16.628 126.538 C 16.628 127.279,16.707 127.582,16.804 127.212 C 16.900 126.841,16.900 126.236,16.804 125.865 C 16.707 125.495,16.628 125.798,16.628 126.538 M246.923 157.089 L 246.923 168.794 245.806 169.589 C 245.018 170.151,244.084 170.387,242.633 170.394 C 239.749 170.407,237.713 170.953,237.056 171.891 C 236.743 172.338,236.072 172.692,235.538 172.692 C 235.011 172.692,234.149 173.124,233.621 173.652 C 233.093 174.180,232.149 174.877,231.523 175.200 C 230.897 175.524,230.385 176.041,230.385 176.349 C 230.385 176.657,229.962 177.014,229.446 177.144 C 228.820 177.301,228.428 177.740,228.270 178.458 C 228.140 179.052,227.717 179.620,227.331 179.721 C 226.931 179.825,226.425 180.545,226.153 181.394 C 225.891 182.214,225.279 183.317,224.793 183.846 C 224.272 184.413,223.800 185.560,223.641 186.640 C 223.493 187.648,223.114 188.618,222.799 188.794 C 221.135 189.725,221.196 198.426,222.880 200.385 C 223.153 200.702,223.504 201.562,223.660 202.295 C 224.004 203.910,224.644 205.000,225.247 205.000 C 225.493 205.000,225.880 205.534,226.108 206.188 C 226.336 206.841,226.866 207.465,227.287 207.575 C 227.707 207.685,228.149 208.084,228.269 208.462 C 228.389 208.839,229.025 209.371,229.683 209.644 C 230.341 209.916,231.280 210.510,231.770 210.964 C 232.647 211.777,239.408 212.695,244.506 212.693 C 246.914 212.692,246.923 212.739,246.923 225.552 L 246.923 236.923 226.154 236.923 L 205.385 236.923 205.385 191.154 L 205.385 145.385 226.154 145.385 L 246.923 145.385 246.923 157.089 M246.496 171.680 C 247.004 172.291,247.253 208.820,246.760 210.322 C 246.336 211.616,235.565 211.485,233.654 210.163 C 233.019 209.724,231.938 209.141,231.250 208.867 C 230.563 208.593,230.000 208.239,230.000 208.081 C 230.000 207.924,229.321 207.345,228.492 206.797 C 227.663 206.248,226.864 205.403,226.717 204.919 C 226.570 204.435,226.125 203.683,225.728 203.248 C 222.892 200.141,223.037 189.080,225.971 184.756 C 226.495 183.985,226.923 183.201,226.923 183.014 C 226.923 182.017,231.782 176.154,232.608 176.154 C 232.720 176.154,233.348 175.746,234.002 175.248 C 237.923 172.263,245.245 170.172,246.496 171.680 M325.733 175.582 C 329.823 176.034,331.099 177.403,331.395 181.658 C 331.748 186.738,331.894 186.899,336.539 187.307 C 343.637 187.932,343.831 188.499,343.855 208.622 C 343.877 227.208,343.681 228.066,339.087 229.430 C 336.225 230.280,276.859 230.282,273.997 229.432 C 269.065 227.968,268.787 226.784,268.925 207.881 L 269.038 192.500 270.001 190.781 C 271.352 188.369,273.328 187.322,276.549 187.314 C 278.805 187.308,279.547 187.082,281.091 185.927 C 281.162 185.874,281.364 184.680,281.538 183.273 C 282.217 177.797,285.058 175.577,291.384 175.577 C 297.582 175.577,298.524 176.391,299.248 182.375 C 299.820 187.107,300.056 187.258,306.713 187.161 C 313.061 187.068,313.043 187.080,313.343 182.846 C 313.663 178.320,315.357 175.969,318.706 175.400 C 320.537 175.089,321.513 175.114,325.733 175.582 M387.789 176.731 C 387.794 177.577,387.872 177.878,387.964 177.399 C 388.056 176.921,388.053 176.229,387.957 175.861 C 387.860 175.493,387.785 175.885,387.789 176.731 M93.462 178.416 C 91.718 178.724,91.180 181.250,92.768 181.675 C 93.917 181.983,167.437 181.997,168.238 181.690 C 168.966 181.410,169.068 179.221,168.385 178.538 C 167.892 178.046,96.218 177.929,93.462 178.416 M168.077 180.192 L 168.077 181.538 131.635 181.533 C 92.058 181.528,93.462 181.586,93.462 179.955 L 93.462 178.846 130.769 178.846 L 168.077 178.846 168.077 180.192 M92.788 191.935 C 90.970 192.666,91.596 194.851,93.708 195.140 C 95.987 195.452,167.425 195.463,168.238 195.151 C 168.966 194.872,169.068 192.683,168.385 192.000 C 167.819 191.435,94.191 191.371,92.788 191.935 M168.077 193.654 L 168.077 195.000 131.635 194.995 C 92.058 194.989,93.462 195.047,93.462 193.417 L 93.462 192.308 130.769 192.308 L 168.077 192.308 168.077 193.654 M92.767 205.274 C 91.033 205.606,91.738 208.194,93.654 208.531 C 96.537 209.038,167.871 208.899,168.385 208.385 C 169.068 207.702,168.966 205.513,168.238 205.233 C 167.553 204.971,94.148 205.010,92.767 205.274 M168.077 206.731 L 168.077 208.077 130.769 208.077 L 93.462 208.077 93.462 206.955 C 93.462 205.354,91.153 205.448,131.250 205.415 L 168.077 205.385 168.077 206.731 M376.643 255.385 C 376.643 256.337,376.718 256.726,376.810 256.250 C 376.902 255.774,376.902 254.995,376.810 254.519 C 376.718 254.043,376.643 254.433,376.643 255.385 " stroke="none" fill="#5c5c5f" fill-rule="evenodd"></path><path id="path4" d="M68.942 122.777 L 68.077 123.194 68.077 189.050 C 68.077 249.836,68.126 254.946,68.713 255.434 C 69.098 255.753,70.798 256.055,73.023 256.199 C 75.328 256.349,76.754 256.608,76.849 256.894 C 77.592 259.123,80.778 259.491,82.935 257.596 C 84.337 256.366,84.419 256.346,88.169 256.346 L 91.978 256.346 93.008 257.600 C 94.486 259.397,96.817 259.402,98.219 257.610 C 99.891 255.475,106.139 255.530,108.410 257.701 C 110.169 259.382,112.142 259.308,113.743 257.500 C 115.358 255.676,123.077 255.560,123.077 257.360 C 123.077 258.700,128.159 259.360,128.830 258.107 C 129.762 256.365,130.309 256.154,133.877 256.154 C 137.178 256.154,137.363 256.200,138.532 257.317 C 140.660 259.351,143.550 259.438,144.617 257.500 C 145.631 255.660,152.063 255.522,153.729 257.304 C 155.613 259.321,159.136 259.375,160.081 257.402 L 160.587 256.346 195.551 256.346 L 230.514 256.346 231.152 257.500 C 232.174 259.352,234.712 259.347,236.936 257.489 L 238.604 256.095 242.154 256.199 C 247.178 256.345,246.923 256.781,246.923 248.055 C 246.923 244.075,246.754 240.375,246.548 239.833 L 246.173 238.846 225.846 238.846 L 205.519 238.846 204.682 237.956 L 203.846 237.066 203.846 191.412 L 203.846 145.758 204.712 144.422 L 205.577 143.086 225.788 143.082 C 240.990 143.078,246.114 142.963,246.462 142.615 C 246.795 142.281,246.923 139.538,246.923 132.692 C 246.923 125.846,246.795 123.103,246.462 122.769 C 245.830 122.138,70.252 122.146,68.942 122.777 M246.077 123.154 C 246.674 123.751,246.731 140.459,246.140 141.564 C 245.754 142.285,245.121 142.308,225.637 142.308 C 203.786 142.308,205.044 142.179,203.277 144.594 L 202.308 145.919 202.308 191.376 L 202.308 236.833 203.891 238.416 L 205.475 240.000 225.609 240.000 C 245.120 240.000,245.754 240.023,246.140 240.744 C 246.593 241.590,246.685 254.174,246.244 254.867 C 246.067 255.145,244.370 255.361,241.716 255.444 C 237.578 255.574,237.432 255.609,235.955 256.827 C 234.036 258.410,232.579 258.475,231.652 257.019 C 231.282 256.438,230.802 255.834,230.586 255.679 C 230.369 255.524,214.562 255.394,195.459 255.391 L 160.726 255.385 159.690 256.485 C 157.902 258.384,156.567 258.337,154.105 256.289 C 153.118 255.468,152.651 255.385,149.040 255.385 L 145.063 255.385 144.231 256.731 C 143.128 258.515,141.714 258.546,139.758 256.827 C 137.288 254.657,129.893 254.723,128.591 256.925 C 127.664 258.495,126.174 258.463,124.111 256.827 C 122.587 255.619,122.394 255.573,118.427 255.448 L 114.320 255.319 113.268 256.698 C 111.912 258.476,110.678 258.512,108.940 256.827 C 107.661 255.586,107.619 255.576,103.291 255.449 L 98.930 255.320 97.830 256.699 C 96.384 258.512,95.006 258.552,93.430 256.827 L 92.289 255.577 87.844 255.577 L 83.398 255.577 82.282 256.827 C 81.503 257.698,80.823 258.077,80.040 258.077 C 79.242 258.077,78.608 257.713,77.863 256.827 C 76.836 255.605,76.732 255.574,73.231 255.444 C 70.965 255.360,69.501 255.133,69.246 254.827 C 68.969 254.492,68.874 234.007,68.941 188.805 L 69.038 123.269 156.346 123.076 C 204.365 122.969,244.095 122.839,244.635 122.787 C 245.174 122.735,245.823 122.900,246.077 123.154 M93.515 176.538 C 91.154 177.096,89.891 180.254,91.285 182.115 C 91.861 182.884,164.397 183.604,168.387 182.880 C 171.547 182.307,172.087 179.662,169.480 177.526 L 167.805 176.154 131.307 176.193 C 111.232 176.215,94.226 176.370,93.515 176.538 M318.846 177.332 C 316.429 178.355,315.000 180.616,315.000 183.417 C 315.000 188.305,314.161 188.846,306.590 188.846 C 298.762 188.846,298.154 188.414,297.119 182.115 C 295.949 174.993,284.628 176.487,283.202 183.951 C 283.071 184.634,282.627 185.923,282.214 186.817 C 281.407 188.563,281.368 188.579,276.960 189.007 C 274.605 189.235,272.351 190.563,271.498 192.225 C 270.764 193.655,270.493 221.268,271.188 223.767 C 271.721 225.679,273.513 227.356,275.739 228.023 C 276.782 228.335,285.759 228.462,306.887 228.462 C 346.006 228.462,342.052 230.505,342.239 210.192 C 342.423 190.210,341.922 188.856,334.342 188.848 C 331.961 188.846,330.611 187.713,329.987 185.192 C 328.536 179.334,328.457 179.186,326.245 178.174 C 323.951 177.123,320.316 176.709,318.846 177.332 M168.912 178.329 C 169.875 179.201,169.850 181.386,168.871 181.910 C 167.731 182.520,92.612 182.458,92.000 181.846 C 91.433 181.279,91.399 179.441,91.937 178.436 C 92.512 177.361,167.727 177.256,168.912 178.329 M92.626 190.052 C 90.882 190.691,90.121 194.294,91.473 195.517 C 92.705 196.633,168.715 196.478,170.140 195.357 C 171.888 193.982,171.310 191.845,168.764 190.264 C 167.542 189.505,94.672 189.303,92.626 190.052 M168.750 191.517 C 170.016 192.573,169.951 194.723,168.636 195.323 C 167.578 195.805,95.134 195.911,92.885 195.433 C 90.924 195.017,91.005 191.344,92.982 191.045 C 97.253 190.397,167.936 190.838,168.750 191.517 M242.308 193.462 C 241.299 194.470,241.337 195.233,242.447 196.268 C 242.946 196.734,243.483 197.548,243.640 198.077 C 244.468 200.860,245.546 201.398,246.366 199.435 C 248.300 194.807,245.332 190.438,242.308 193.462 M246.166 194.072 C 246.507 194.967,246.103 199.409,245.639 199.873 C 245.554 199.959,245.100 199.201,244.631 198.188 C 244.163 197.175,243.405 196.051,242.947 195.689 C 241.583 194.612,242.624 193.560,245.490 193.122 C 245.654 193.097,245.958 193.525,246.166 194.072 M91.368 204.701 C 90.534 205.892,90.621 207.785,91.566 208.987 L 92.364 210.000 130.356 210.000 L 168.348 210.000 169.655 209.122 C 171.389 207.958,171.624 206.205,170.234 204.814 L 169.266 203.846 130.616 203.846 L 91.967 203.846 91.368 204.701 M168.871 205.014 C 170.065 205.653,169.906 208.206,168.636 208.784 C 167.549 209.279,94.472 209.380,92.692 208.889 C 91.597 208.586,91.112 206.170,91.945 205.165 C 92.520 204.474,167.585 204.325,168.871 205.014 " stroke="none" fill="#9c9cac" fill-rule="evenodd"></path></g></svg>